<svg width="375" height="123" viewBox="0 0 375 123" fill="none" xmlns="http://www.w3.org/2000/svg">
<g filter="url(#filter0_d)">
<path d="M134.775 38C148.555 38 161.618 28.484 174.846 24.6254C178.436 23.578 182.372 23 186.5 23C190.628 23 194.564 23.578 198.154 24.6254C211.382 28.484 224.445 38 238.225 38H374V123H-1V38H134.775Z" fill="white"/>
</g>
<path d="M172 44L187 39L202 44" stroke="#FF2225" stroke-width="2" stroke-linecap="round"/>
<path fill-rule="evenodd" clip-rule="evenodd" d="M184.5 71C179.15 71 174.812 75.3372 174.812 80.6875V86.3977C174.812 86.4934 174.784 86.5869 174.731 86.6664L171.431 91.6162C171.109 92.0992 170.938 92.6667 170.938 93.2472C170.938 94.8712 172.254 96.1875 173.878 96.1875H195.122C196.746 96.1875 198.062 94.8712 198.062 93.2472C198.062 92.6667 197.891 92.0992 197.569 91.6162L194.269 86.6664C194.216 86.5869 194.188 86.4934 194.188 86.3977V80.6875C194.188 75.3372 189.85 71 184.5 71ZM177.719 80.6875C177.719 76.9423 180.755 73.9062 184.5 73.9062C188.245 73.9062 191.281 76.9423 191.281 80.6875V86.3977C191.281 87.0671 191.479 87.7216 191.851 88.2785L195.15 93.2282C195.154 93.2338 195.156 93.2404 195.156 93.2472C195.156 93.2515 195.155 93.2567 195.155 93.2567L195.154 93.2599C195.154 93.2599 195.15 93.2671 195.146 93.2712C195.142 93.2754 195.135 93.2791 195.135 93.2791C195.135 93.2791 195.13 93.2812 195.122 93.2812H173.878C173.87 93.2812 173.865 93.2791 173.865 93.2791C173.865 93.2791 173.858 93.2754 173.854 93.2712C173.85 93.2671 173.846 93.2599 173.846 93.2599C173.846 93.2599 173.844 93.2545 173.844 93.2472C173.844 93.2404 173.846 93.2338 173.849 93.2282L177.149 88.2785C177.521 87.7216 177.719 87.0671 177.719 86.3977V80.6875Z" fill="#303C45"/>
<path d="M188.345 98.6084C188.107 100.52 186.476 102 184.5 102C182.524 102 180.893 100.52 180.655 98.6084C180.622 98.343 180.842 98.125 181.109 98.125H187.891C188.158 98.125 188.378 98.343 188.345 98.6084Z" fill="#303C45"/>
<rect x="187" y="58" width="25" height="25" rx="12.5" fill="#FF6161"/>
<path d="M200.781 66.0455H199.636L197.273 67.6151V68.7784L199.581 67.2457H199.636V75.5H200.781V66.0455Z" fill="white"/>
<rect x="187" y="58" width="25" height="25" rx="12.5" stroke="white" stroke-width="2"/>
<path d="M337.832 82.2598H314.996L321.5 103H337.832V82.2598Z" fill="#D0C0CC"/>
<path d="M305.168 82.2598H321.5V103H305.168V82.2598Z" fill="#E1D7DF"/>
<path d="M321.5 73.5879L317.164 80.0918L321.5 84.4277H340V75.7559H329.088L321.5 73.5879Z" fill="#E1D7DF"/>
<path d="M321.5 73.5879L317.164 75.7559H303V84.4277H321.5V73.5879Z" fill="#F2EDF1"/>
<path d="M309.576 81.1758V98.6641H310.66C311.842 98.6641 312.981 98.2771 313.912 97.5786C314.843 98.2771 315.983 98.6641 317.164 98.6641H318.248V79.0078C318.248 77.2147 319.707 75.7559 321.5 75.7559L318.248 73.5879L314.996 75.7559C312.008 75.7559 309.576 78.1872 309.576 81.1758Z" fill="#FF4C47"/>
<path d="M328.004 75.7559L324.752 73.5879L321.5 75.7559C323.293 75.7559 324.752 77.2147 324.752 79.0078V98.6641H325.836C327.017 98.6641 328.157 98.2771 329.088 97.5786C330.019 98.2771 331.158 98.6641 332.34 98.6641H333.424V81.1758C333.424 78.1872 330.992 75.7559 328.004 75.7559Z" fill="#FF2225"/>
<path d="M316.08 66C314.284 66 312.828 67.4559 312.828 69.252C312.828 69.3137 312.83 69.3749 312.834 69.4359C311.568 69.8808 310.66 71.0861 310.66 72.5039C310.66 74.2999 312.116 75.7559 313.912 75.7559H317.164L321.5 71.4199C321.5 68.4266 319.073 66 316.08 66Z" fill="#FF2225"/>
<path d="M330.166 69.4359C330.17 69.3749 330.172 69.3137 330.172 69.252C330.172 67.4559 328.716 66 326.92 66C323.927 66 321.5 68.4266 321.5 71.4199L325.836 75.7559H329.088C330.884 75.7559 332.34 74.2999 332.34 72.5039C332.34 71.0861 331.432 69.8808 330.166 69.4359Z" fill="#CF2731"/>
<path d="M321.5 71.4199L318.631 73.5879L321.5 75.7559H325.836C325.836 73.3612 323.895 71.4199 321.5 71.4199Z" fill="#9F2C3C"/>
<path d="M317.164 75.7559H321.5V71.4199C319.105 71.4199 317.164 73.3612 317.164 75.7559Z" fill="#CF2731"/>
<defs>
<filter id="filter0_d" x="-24" y="0" width="421" height="146" filterUnits="userSpaceOnUse" color-interpolation-filters="sRGB">
<feFlood flood-opacity="0" result="BackgroundImageFix"/>
<feColorMatrix in="SourceAlpha" type="matrix" values="0 0 0 0 0 0 0 0 0 0 0 0 0 0 0 0 0 0 127 0"/>
<feOffset/>
<feGaussianBlur stdDeviation="11.5"/>
<feColorMatrix type="matrix" values="0 0 0 0 0.100069 0 0 0 0 0.310012 0 0 0 0 0.491962 0 0 0 0.27 0"/>
<feBlend mode="normal" in2="BackgroundImageFix" result="effect1_dropShadow"/>
<feBlend mode="normal" in="SourceGraphic" in2="effect1_dropShadow" result="shape"/>
</filter>
</defs>
</svg>
