<svg width="24" height="24" viewBox="0 0 24 24" fill="none" xmlns="http://www.w3.org/2000/svg">
<g clip-path="url(#clip0)">
<path d="M21.9608 10.2286C21.4608 8.97665 20.5946 7.83449 19.4222 6.87965L20.874 4.7458C21.0923 4.42499 21.0092 3.98737 20.6882 3.76897C19.2279 2.77541 17.3864 2.80752 15.9554 3.62521C15.4738 1.57649 13.631 0.0466309 11.4375 0.0466309C8.83158 0.0466309 6.69886 2.21474 6.80072 4.86679C2.70909 6.24833 0 9.36196 0 12.7554C0 15.1143 1.2818 17.3564 3.53986 18.9869L2.86491 20.3061C2.42278 21.1702 2.76417 22.2274 3.62845 22.6696L5.7593 23.7599C6.62348 24.2019 7.68066 23.8606 8.12288 22.9964L9.05752 21.1697C10.4964 21.3874 12.0032 21.3874 13.4425 21.1696L14.3772 22.9964C14.8188 23.8596 15.8757 24.2025 16.7407 23.7599L18.8716 22.6696C19.7357 22.2275 20.0774 21.1704 19.6351 20.3061L18.9596 18.9858C19.8249 18.3594 20.5479 17.6376 21.114 16.834C21.6031 16.1398 22.4395 15.7086 23.2969 15.7086C23.6852 15.7086 24 15.3937 24 15.0054V12.6809C24 11.4589 23.0951 10.4592 21.9608 10.2286ZM11.4375 1.45288C13.224 1.45288 14.6906 2.91383 14.6712 4.72227C13.2794 6.86301 9.83503 6.94082 8.22623 5.07172C7.99627 3.11957 9.5273 1.45288 11.4375 1.45288ZM22.5938 14.3655C21.5451 14.554 20.5773 15.1541 19.9644 16.0241C19.392 16.8366 18.621 17.5556 17.6726 18.1611C17.3671 18.3561 17.2599 18.7514 17.425 19.074L18.3832 20.9467C18.4712 21.1187 18.4033 21.3297 18.231 21.4178L16.1001 22.5081C15.9282 22.596 15.7172 22.5281 15.629 22.3559L14.4592 20.0697C14.3166 19.791 14.0078 19.6412 13.7022 19.6992C12.0993 20.0034 10.4011 20.0035 8.79773 19.6993C8.49103 19.6411 8.18288 19.792 8.0407 20.0698L6.87094 22.3559C6.78272 22.5282 6.57173 22.5961 6.3998 22.5081L4.26895 21.4178C4.09697 21.3299 4.02863 21.119 4.11675 20.9467L5.07459 19.0748C5.23964 18.7521 5.13248 18.3569 4.827 18.1618C2.65308 16.7741 1.40625 14.8035 1.40625 12.7554C1.40625 9.95137 3.76711 7.3476 7.32708 6.17319C9.48595 8.42976 13.6174 8.39235 15.5923 5.83832C15.601 5.82707 15.6094 5.81554 15.6174 5.80377C16.4575 4.56904 18.0177 4.14407 19.2676 4.60686L17.8845 6.63979C17.6691 6.95633 17.7466 7.38697 18.0588 7.60865C19.4084 8.56672 20.3497 9.77338 20.7809 11.0981C20.8752 11.3876 21.1451 11.5835 21.4495 11.5835C22.0697 11.5835 22.5938 12.0861 22.5938 12.6808V14.3655Z" fill="#2A7DEB"/>
<path d="M18.3902 9.54584C17.8684 9.20295 17.1945 9.64892 17.3102 10.2677C17.3934 10.668 17.778 10.8945 18.1371 10.8199C18.7579 10.69 18.9036 9.89351 18.3902 9.54584Z" fill="#2A7DEB"/>
</g>
<defs>
<clipPath id="clip0">
<rect width="24" height="24" fill="white"/>
</clipPath>
</defs>
</svg>
