<svg width="24" height="24" viewBox="0 0 24 24" fill="none" xmlns="http://www.w3.org/2000/svg">
<path d="M23.2969 0H0.703125C0.314812 0 0 0.314812 0 0.703125V3.51562C0 3.90394 0.314812 4.21875 0.703125 4.21875H1.40625V6.32812C1.40625 6.71644 1.72106 7.03125 2.10938 7.03125H2.29688V19.9453C2.29688 22.1811 4.11581 24 6.35156 24C8.58731 24 10.4062 22.1811 10.4062 19.9453V7.03125H10.5938C10.9821 7.03125 11.2969 6.71644 11.2969 6.32812V4.21875H12.7031V6.32812C12.7031 6.71644 13.0179 7.03125 13.4062 7.03125H13.5938V19.9453C13.5938 22.1811 15.4127 24 17.6484 24C19.8842 24 21.7031 22.1811 21.7031 19.9453V7.03125H21.8906C22.2789 7.03125 22.5938 6.71644 22.5938 6.32812V4.21875H23.2969C23.6852 4.21875 24 3.90394 24 3.51562V0.703125C24 0.314812 23.6852 0 23.2969 0ZM9 19.9453C9 21.4057 7.81191 22.5938 6.35156 22.5938C4.89122 22.5938 3.70312 21.4057 3.70312 19.9453V7.0313H9V19.9453ZM20.2969 19.9453C20.2969 21.4057 19.1088 22.5938 17.6484 22.5938C16.1881 22.5938 15 21.4057 15 19.9453V7.0313H20.2969V19.9453ZM9.89062 5.625H2.8125V4.21875H9.89062V5.625ZM21.1875 5.625H14.1094V4.21875H21.1875V5.625ZM22.5938 2.8125H1.40625V1.40625H22.5938V2.8125Z" fill="#2A7DEB"/>
</svg>
